<svg id="Capa_1" enable-background="new 0 0 512 512" height="512" viewBox="0 0 512 512" width="512" xmlns="http://www.w3.org/2000/svg"><g><path d="m447.48 31.215v449.571c0 17.235-13.98 31.215-31.214 31.215h-320.531c-17.235-.001-31.215-13.981-31.215-31.216v-449.57c0-17.235 13.98-31.215 31.215-31.215h66.612l93.653 15.968 93.654-15.968h66.612c17.234 0 31.214 13.98 31.214 31.215z" fill="#4073c8"/><path d="m416.26 0h-25.905c17.242 0 31.22 13.977 31.22 31.22v449.56c0 17.242-13.978 31.22-31.22 31.22h25.905c17.242 0 31.22-13.977 31.22-31.22v-449.56c0-17.243-13.978-31.22-31.22-31.22z" fill="#30579d"/><path d="m106.146 460.072v-408.144c0-5.69 4.612-10.302 10.302-10.302h279.104c5.69 0 10.302 4.612 10.302 10.302v408.144c0 5.69-4.612 10.302-10.302 10.302h-279.104c-5.689 0-10.302-4.612-10.302-10.302z" fill="#ecf4ff"/><path d="m380.878 470.374v-428.748h14.674c5.69 0 10.302 4.612 10.302 10.302v408.144c0 5.69-4.612 10.302-10.302 10.302z" fill="#cbe2ff"/><path d="m349.659 0h-187.318v31.22c0 5.747 4.659 10.407 10.407 10.407h20.813v20.813c0 5.747 4.659 10.407 10.407 10.407h104.065c5.747 0 10.406-4.659 10.406-10.407v-20.814h20.813c5.747 0 10.406-4.659 10.406-10.407v-31.219z" fill="#f6e266"/><path d="m281.419 0c2.407 5.774 3.719 11.882 3.719 18.211 0 23.129-17.26 43.39-43.119 54.634h66.014c5.747 0 10.406-4.659 10.406-10.407v-20.812h20.813c5.747 0 10.406-4.659 10.406-10.407v-31.219z" fill="#f1d333"/><g><path d="m372.553 135.726h-160.26c-4.267 0-7.726-3.459-7.726-7.726s3.459-7.726 7.726-7.726h160.261c4.268 0 7.726 3.459 7.726 7.726s-3.459 7.726-7.727 7.726z" fill="#9dc6fb"/></g><g><path d="m330.927 177.352h-118.634c-4.267 0-7.726-3.459-7.726-7.726 0-4.268 3.459-7.726 7.726-7.726h118.634c4.268 0 7.726 3.459 7.726 7.726s-3.459 7.726-7.726 7.726z" fill="#9dc6fb"/></g><g><path d="m372.553 211.694h-160.26c-4.267 0-7.726-3.459-7.726-7.726s3.459-7.726 7.726-7.726h160.261c4.268 0 7.726 3.459 7.726 7.726s-3.459 7.726-7.727 7.726z" fill="#9dc6fb"/></g><g><path d="m330.927 253.32h-118.634c-4.267 0-7.726-3.459-7.726-7.726 0-4.268 3.459-7.726 7.726-7.726h118.634c4.268 0 7.726 3.459 7.726 7.726s-3.459 7.726-7.726 7.726z" fill="#9dc6fb"/></g><g><path d="m372.553 287.661h-160.26c-4.267 0-7.726-3.459-7.726-7.726s3.459-7.726 7.726-7.726h160.261c4.268 0 7.726 3.459 7.726 7.726s-3.459 7.726-7.727 7.726z" fill="#9dc6fb"/></g><g><path d="m330.927 329.288h-118.634c-4.267 0-7.726-3.459-7.726-7.726s3.459-7.726 7.726-7.726h118.634c4.268 0 7.726 3.459 7.726 7.726s-3.459 7.726-7.726 7.726z" fill="#9dc6fb"/></g><g fill="#c8ea73"><circle cx="160.26" cy="148.813" r="28.539"/><circle cx="160.26" cy="224.781" r="28.539"/><path d="m160.26 272.208c-15.736 0-28.539 12.803-28.539 28.539 0 15.737 12.803 28.54 28.539 28.54s28.539-12.803 28.539-28.54c0-15.736-12.803-28.539-28.539-28.539z"/><circle cx="160.26" cy="376.715" r="28.539"/></g><g><path d="m372.553 363.629h-160.26c-4.267 0-7.726-3.459-7.726-7.726s3.459-7.726 7.726-7.726h160.261c4.268 0 7.726 3.459 7.726 7.726s-3.459 7.726-7.727 7.726z" fill="#9dc6fb"/></g><g><path d="m330.927 405.255h-118.634c-4.267 0-7.726-3.459-7.726-7.726s3.459-7.726 7.726-7.726h118.634c4.268 0 7.726 3.459 7.726 7.726s-3.459 7.726-7.726 7.726z" fill="#9dc6fb"/></g></g></svg>