<?xml version='1.0' encoding='utf-8'?>
<svg xmlns="http://www.w3.org/2000/svg" version="1.1" id="Layer_1" x="0px" y="0px" viewBox="0 0 500 500" style="enable-background:new 0 0 500 500;"> <style type="text/css"> .st0{fill:#16A3A3;} .st1{opacity:0.2;} .st2{fill:#FFFFFF;} .st3{fill:#45BBC6;} .st4{fill-rule:evenodd;clip-rule:evenodd;fill:#FFFFFF;} .st5{fill-rule:evenodd;clip-rule:evenodd;fill:#CCE4C4;} .st6{fill-rule:evenodd;clip-rule:evenodd;fill:#1E4C4C;} .st7{fill-rule:evenodd;clip-rule:evenodd;fill:#678686;} .st8{fill-rule:evenodd;clip-rule:evenodd;fill:#FCAF20;} .st9{fill-rule:evenodd;clip-rule:evenodd;fill:#FCC020;} .st10{fill:#1E4C4C;} .st11{fill-rule:evenodd;clip-rule:evenodd;fill:#D6F0F2;} .st12{fill-rule:evenodd;clip-rule:evenodd;fill:#00A2AB;} .st13{fill-rule:evenodd;clip-rule:evenodd;fill:#134343;} .st14{fill-rule:evenodd;clip-rule:evenodd;fill:#B1E2E7;} </style> <rect class="st0" width="500" height="500"/> <g class="st1"> <g> <rect x="378.4" y="64.2" class="st2" width="50.7" height="44.6"/> </g> <g> <rect x="310.8" y="64.2" class="st2" width="50.7" height="44.6"/> </g> <g> <rect x="243.2" y="64.2" class="st2" width="50.7" height="44.6"/> </g> <g> <rect x="378.4" y="124.1" class="st2" width="50.7" height="44.6"/> </g> <g> <rect x="310.8" y="124.1" class="st2" width="50.7" height="44.6"/> </g> <g> <rect x="243.2" y="124.1" class="st2" width="50.7" height="44.6"/> </g> <g> <rect x="378.4" y="184.1" class="st2" width="50.7" height="44.6"/> </g> <g> <rect x="310.8" y="184.1" class="st2" width="50.7" height="44.6"/> </g> <g> <rect x="243.2" y="184.1" class="st2" width="50.7" height="44.6"/> </g> </g> <g> <g> <rect x="387.3" y="71.3" class="st3" width="50.7" height="44.6"/> </g> <g> <rect x="319.7" y="71.3" class="st3" width="50.7" height="44.6"/> </g> <g> <rect x="252.1" y="71.3" class="st3" width="50.7" height="44.6"/> </g> <g> <rect x="387.3" y="131.2" class="st3" width="50.7" height="44.6"/> </g> <g> <rect x="319.7" y="131.2" class="st3" width="50.7" height="44.6"/> </g> <g> <rect x="252.1" y="131.2" class="st3" width="50.7" height="44.6"/> </g> <g> <path class="st3" d="M442,239.7h-58.7v-52.6H442V239.7z M391.3,231.7H434v-36.6h-42.7V231.7z"/> </g> <g> <rect x="319.7" y="191.2" class="st3" width="50.7" height="44.6"/> </g> <g> <rect x="252.1" y="191.2" class="st3" width="50.7" height="44.6"/> </g> </g> <g> <g> <g> <path class="st4" d="M276,432.3H83.7c-13.2,0-21.7-13.8-15.9-25.6l17.7-35.8h190.9l13.9,41.5C293.6,422.2,286.4,432.3,276,432.3z "/> </g> </g> <g> <g> <rect x="143.9" y="391.3" class="st5" width="71.2" height="26.2"/> </g> </g> <g> <g> <ellipse transform="matrix(0.7071 -0.7071 0.7071 0.7071 -156.5009 214.744)" class="st6" cx="181" cy="296.3" rx="121.2" ry="121.2"/> </g> </g> <g> <g> <ellipse transform="matrix(0.7071 -0.7071 0.7071 0.7071 -156.5007 214.744)" class="st4" cx="181" cy="296.3" rx="99.1" ry="99.1"/> </g> </g> <g> <g> <g> <rect x="178.3" y="205.5" class="st7" width="4.4" height="12.3"/> </g> </g> <g> <g> <rect x="178.3" y="373.9" class="st7" width="4.4" height="12.3"/> </g> </g> </g> <g> <g> <g> <rect x="94.2" y="289.7" transform="matrix(6.123234e-17 -1 1 6.123234e-17 -199.5203 392.2366)" class="st7" width="4.4" height="12.3"/> </g> </g> <g> <g> <rect x="262.5" y="289.7" transform="matrix(6.123234e-17 -1 1 6.123234e-17 -31.1773 560.5796)" class="st7" width="4.4" height="12.3"/> </g> </g> </g> <g> <g> <g> <rect x="118.8" y="230.2" transform="matrix(0.7072 -0.707 0.707 0.7072 -131.6752 154.756)" class="st7" width="4.4" height="12.3"/> </g> </g> <g> <g> <rect x="237.8" y="349.2" transform="matrix(0.7072 -0.7071 0.7071 0.7072 -180.9887 273.8006)" class="st7" width="4.4" height="12.3"/> </g> </g> </g> <g> <g> <g> <rect x="118.8" y="349.2" transform="matrix(-0.7072 -0.707 0.707 -0.7072 -44.675 692.2917)" class="st7" width="4.4" height="12.3"/> </g> </g> <g> <g> <rect x="237.8" y="230.2" transform="matrix(-0.707 -0.7072 0.7072 -0.707 242.6043 573.2311)" class="st7" width="4.4" height="12.3"/> </g> </g> </g> <g> <g> <g> <path class="st8" d="M144.7,266.6L144.7,266.6c-1.4,2.3-0.7,5.3,1.5,6.7l31.3,25.8c2.3,1.4,5.3,0.7,6.7-1.5l0,0 c1.4-2.3,0.7-5.3-1.5-6.7L151.4,265C149.1,263.6,146.1,264.3,144.7,266.6z"/> </g> </g> <g> <g> <path class="st9" d="M181.2,295.7L181.2,295.7c2.3,1.4,5.3,0.7,6.7-1.5l34.1-54.6c1.4-2.3,0.7-5.3-1.5-6.7l0,0 c-2.3-1.4-5.3-0.7-6.7,1.5L179.7,289C178.2,291.3,178.9,294.3,181.2,295.7z"/> </g> </g> <g> <g> <path class="st9" d="M180.4,288.5c4-0.4,7.6,2.5,8,6.4c0.4,4-2.5,7.6-6.4,8c-4,0.4-7.6-2.5-8-6.4 C173.6,292.5,176.5,288.9,180.4,288.5z"/> </g> </g> </g> <g> <g> <path class="st6" d="M163.6,161h35.1c0.5,0,0.9-0.4,0.9-0.9V147c0-0.5-0.4-0.9-0.9-0.9h-35.1c-0.5,0-0.9,0.4-0.9,0.9v13.1 C162.7,160.7,163.1,161,163.6,161z"/> </g> </g> <g> <g> <rect x="170.6" y="155.9" class="st10" width="21.9" height="15.4"/> </g> </g> <g> <g> <path class="st11" d="M55,404.4h4.8L297,391.3v19.3c0,12-9.7,21.7-21.7,21.7H83C67.5,432.3,55,419.8,55,404.4L55,404.4z"/> </g> </g> <g> <g> <rect x="81.8" y="432" class="st12" width="196.8" height="3"/> </g> </g> <g> <g> <path class="st13" d="M250.9,393.7l-130.8,7.3c0,0-8.3-5.3-8.8-5.6c-0.3-0.2,42.2,2.4,83.2,0c33.8-2,67.6-9.2,67.6-9.2 S257.3,389.9,250.9,393.7z"/> </g> </g> <g> <g> <path class="st14" d="M280.1,404.4l-34.1,1.5v14.9h34.1C280.1,420.7,281.5,409.1,280.1,404.4z"/> </g> </g> <g> <g> <polygon class="st14" points="227.1,406.5 192.5,408.4 192.4,420.7 227.1,420.7 "/> </g> </g> <g> <g> <polygon class="st14" points="175.1,408.4 140.6,410.3 140.5,422.6 175.1,420.9 "/> </g> </g> <g> <g> <path class="st14" d="M116.7,411.7l-38,1.9l2.6,4.7c2.6,4.6,7.5,7.4,12.8,7.1l24.3-1.3L116.7,411.7z"/> </g> </g> </g> </svg>